<svg width="1440" height="1600" viewBox="0 0 1440 1600" fill="none" xmlns="http://www.w3.org/2000/svg">
<g filter="url(#filter0_d_0_14)">
<circle cx="69.7891" cy="104.408" r="156.383" fill="#FFB03A"/>
<circle cx="145.081" cy="255.01" r="156.383" fill="#FFAB2D"/>
<circle cx="198.642" cy="98.6269" r="156.383" fill="#DAF341"/>
<g filter="url(#filter1_b_0_14)">
<path d="M492.638 119.819C492.638 337.32 316.32 513.638 98.8192 513.638C-118.681 513.638 -295 337.32 -295 119.819C-295 -97.6811 -118.681 -274 98.8192 -274C316.32 -274 492.638 -97.6811 492.638 119.819Z" fill="white" fill-opacity="0.79"/>
</g>
<circle cx="69.7891" cy="1126.41" r="156.383" fill="#FFB03A"/>
<circle cx="145.081" cy="1277.01" r="156.383" fill="#FFAB2D"/>
<circle cx="198.642" cy="1120.63" r="156.383" fill="#DAF341"/>
<g filter="url(#filter2_b_0_14)">
<path d="M454.638 1294.82C454.638 1512.32 278.32 1688.64 60.8192 1688.64C-156.681 1688.64 -333 1512.32 -333 1294.82C-333 1077.32 -156.681 901 60.8192 901C278.32 901 454.638 1077.32 454.638 1294.82Z" fill="white" fill-opacity="0.79"/>
</g>
<circle cx="1321.79" cy="1406.41" r="156.383" fill="#FFB03A"/>
<circle cx="1397.08" cy="1557.01" r="156.383" fill="#FFAB2D"/>
<circle cx="1450.64" cy="1400.63" r="156.383" fill="#DAF341"/>
<g filter="url(#filter3_b_0_14)">
<path d="M1744.64 1421.82C1744.64 1639.32 1568.32 1815.64 1350.82 1815.64C1133.32 1815.64 957 1639.32 957 1421.82C957 1204.32 1133.32 1028 1350.82 1028C1568.32 1028 1744.64 1204.32 1744.64 1421.82Z" fill="white" fill-opacity="0.79"/>
</g>
<circle cx="1245.79" cy="138.408" r="156.383" fill="#FFB03A"/>
<circle cx="1321.08" cy="289.01" r="156.383" fill="#FFAB2D"/>
<circle cx="1374.64" cy="132.627" r="156.383" fill="#DAF341"/>
<g filter="url(#filter4_b_0_14)">
<circle cx="1274.82" cy="153.819" r="393.819" fill="white" fill-opacity="0.79"/>
</g>
</g>
<defs>
<filter id="filter0_d_0_14" x="-337" y="-274" width="2085.64" height="2097.64" filterUnits="userSpaceOnUse" color-interpolation-filters="sRGB">
<feFlood flood-opacity="0" result="BackgroundImageFix"/>
<feColorMatrix in="SourceAlpha" type="matrix" values="0 0 0 0 0 0 0 0 0 0 0 0 0 0 0 0 0 0 127 0" result="hardAlpha"/>
<feOffset dy="4"/>
<feGaussianBlur stdDeviation="2"/>
<feComposite in2="hardAlpha" operator="out"/>
<feColorMatrix type="matrix" values="0 0 0 0 0 0 0 0 0 0 0 0 0 0 0 0 0 0 0.25 0"/>
<feBlend mode="normal" in2="BackgroundImageFix" result="effect1_dropShadow_0_14"/>
<feBlend mode="normal" in="SourceGraphic" in2="effect1_dropShadow_0_14" result="shape"/>
</filter>
<filter id="filter1_b_0_14" x="-435.126" y="-414.126" width="1067.89" height="1067.89" filterUnits="userSpaceOnUse" color-interpolation-filters="sRGB">
<feFlood flood-opacity="0" result="BackgroundImageFix"/>
<feGaussianBlur in="BackgroundImageFix" stdDeviation="70.063"/>
<feComposite in2="SourceAlpha" operator="in" result="effect1_backgroundBlur_0_14"/>
<feBlend mode="normal" in="SourceGraphic" in2="effect1_backgroundBlur_0_14" result="shape"/>
</filter>
<filter id="filter2_b_0_14" x="-473.126" y="760.874" width="1067.89" height="1067.89" filterUnits="userSpaceOnUse" color-interpolation-filters="sRGB">
<feFlood flood-opacity="0" result="BackgroundImageFix"/>
<feGaussianBlur in="BackgroundImageFix" stdDeviation="70.063"/>
<feComposite in2="SourceAlpha" operator="in" result="effect1_backgroundBlur_0_14"/>
<feBlend mode="normal" in="SourceGraphic" in2="effect1_backgroundBlur_0_14" result="shape"/>
</filter>
<filter id="filter3_b_0_14" x="816.874" y="887.874" width="1067.89" height="1067.89" filterUnits="userSpaceOnUse" color-interpolation-filters="sRGB">
<feFlood flood-opacity="0" result="BackgroundImageFix"/>
<feGaussianBlur in="BackgroundImageFix" stdDeviation="70.063"/>
<feComposite in2="SourceAlpha" operator="in" result="effect1_backgroundBlur_0_14"/>
<feBlend mode="normal" in="SourceGraphic" in2="effect1_backgroundBlur_0_14" result="shape"/>
</filter>
<filter id="filter4_b_0_14" x="740.874" y="-380.126" width="1067.89" height="1067.89" filterUnits="userSpaceOnUse" color-interpolation-filters="sRGB">
<feFlood flood-opacity="0" result="BackgroundImageFix"/>
<feGaussianBlur in="BackgroundImageFix" stdDeviation="70.063"/>
<feComposite in2="SourceAlpha" operator="in" result="effect1_backgroundBlur_0_14"/>
<feBlend mode="normal" in="SourceGraphic" in2="effect1_backgroundBlur_0_14" result="shape"/>
</filter>
</defs>
</svg>
